<mxfile host="app.diagrams.net" modified="2024-03-24T15:41:08.662Z" agent="Mozilla/5.0 (X11; Linux x86_64) AppleWebKit/537.36 (KHTML, like Gecko) Chrome/122.0.0.0 Safari/537.36" etag="IvaRoe1PlJ5vsQZNVvTl" version="24.1.0" type="device" pages="2">
  <diagram name="Page-1" id="P2GKzheTjJz1Bcsu7LEO">
    <mxGraphModel dx="1602" dy="622" grid="1" gridSize="10" guides="1" tooltips="1" connect="1" arrows="1" fold="1" page="1" pageScale="1" pageWidth="850" pageHeight="1100" math="0" shadow="0">
      <root>
        <mxCell id="0" />
        <mxCell id="1" parent="0" />
        <mxCell id="mkcxDaNmDi7V5uVBcCaA-12" value="" style="shape=image;verticalLabelPosition=bottom;labelBackgroundColor=default;verticalAlign=top;aspect=fixed;imageAspect=0;image=https://1000logos.net/wp-content/uploads/2021/05/GitHub-logo.png;" vertex="1" parent="1">
          <mxGeometry x="23" y="570" width="124.44" height="70" as="geometry" />
        </mxCell>
        <mxCell id="mkcxDaNmDi7V5uVBcCaA-14" value="trunk" style="rounded=1;whiteSpace=wrap;html=1;fontStyle=1" vertex="1" parent="1">
          <mxGeometry x="60.22" y="670" width="50" height="20" as="geometry" />
        </mxCell>
        <mxCell id="mkcxDaNmDi7V5uVBcCaA-15" value="branch-a" style="rounded=1;whiteSpace=wrap;html=1;fontStyle=1" vertex="1" parent="1">
          <mxGeometry x="55.33" y="700" width="59.78" height="20" as="geometry" />
        </mxCell>
        <mxCell id="mkcxDaNmDi7V5uVBcCaA-16" value="branch-b" style="rounded=1;whiteSpace=wrap;html=1;fontStyle=1" vertex="1" parent="1">
          <mxGeometry x="55.33" y="730" width="59.78" height="20" as="geometry" />
        </mxCell>
        <mxCell id="mkcxDaNmDi7V5uVBcCaA-17" value="branch-c" style="rounded=1;whiteSpace=wrap;html=1;fontStyle=1" vertex="1" parent="1">
          <mxGeometry x="55.33" y="760" width="59.78" height="20" as="geometry" />
        </mxCell>
        <mxCell id="mkcxDaNmDi7V5uVBcCaA-18" value="pull request 1" style="rounded=1;whiteSpace=wrap;html=1;fontStyle=1;fillColor=#000000;fontColor=#FFFFFF;" vertex="1" parent="1">
          <mxGeometry x="170" y="700" width="90" height="20" as="geometry" />
        </mxCell>
        <mxCell id="mkcxDaNmDi7V5uVBcCaA-19" value="" style="endArrow=classic;html=1;rounded=0;exitX=1;exitY=0.5;exitDx=0;exitDy=0;entryX=0;entryY=0.5;entryDx=0;entryDy=0;" edge="1" parent="1" source="mkcxDaNmDi7V5uVBcCaA-15" target="mkcxDaNmDi7V5uVBcCaA-18">
          <mxGeometry width="50" height="50" relative="1" as="geometry">
            <mxPoint x="130" y="750" as="sourcePoint" />
            <mxPoint x="180" y="700" as="targetPoint" />
          </mxGeometry>
        </mxCell>
        <mxCell id="mkcxDaNmDi7V5uVBcCaA-20" value="pull request 2" style="rounded=1;whiteSpace=wrap;html=1;fontStyle=1;fillColor=#000000;fontColor=#FFFFFF;" vertex="1" parent="1">
          <mxGeometry x="170.11" y="760" width="89.89" height="20" as="geometry" />
        </mxCell>
        <mxCell id="mkcxDaNmDi7V5uVBcCaA-21" value="" style="endArrow=classic;html=1;rounded=0;exitX=1;exitY=0.5;exitDx=0;exitDy=0;entryX=0;entryY=0.5;entryDx=0;entryDy=0;" edge="1" parent="1" target="mkcxDaNmDi7V5uVBcCaA-20">
          <mxGeometry width="50" height="50" relative="1" as="geometry">
            <mxPoint x="115.11" y="770" as="sourcePoint" />
            <mxPoint x="180.11" y="760" as="targetPoint" />
          </mxGeometry>
        </mxCell>
        <mxCell id="mkcxDaNmDi7V5uVBcCaA-22" value="" style="endArrow=classic;html=1;rounded=1;exitX=1;exitY=0.5;exitDx=0;exitDy=0;entryX=1;entryY=0.5;entryDx=0;entryDy=0;strokeWidth=1;dashed=1;curved=0;" edge="1" parent="1" source="mkcxDaNmDi7V5uVBcCaA-18" target="mkcxDaNmDi7V5uVBcCaA-14">
          <mxGeometry width="50" height="50" relative="1" as="geometry">
            <mxPoint x="260" y="730" as="sourcePoint" />
            <mxPoint x="270" y="670" as="targetPoint" />
            <Array as="points">
              <mxPoint x="270" y="710" />
              <mxPoint x="270" y="680" />
            </Array>
          </mxGeometry>
        </mxCell>
        <mxCell id="mkcxDaNmDi7V5uVBcCaA-23" value="" style="endArrow=classic;html=1;rounded=1;exitX=1;exitY=0.5;exitDx=0;exitDy=0;strokeWidth=1;dashed=1;entryX=0.5;entryY=0;entryDx=0;entryDy=0;curved=0;" edge="1" parent="1" target="mkcxDaNmDi7V5uVBcCaA-14">
          <mxGeometry width="50" height="50" relative="1" as="geometry">
            <mxPoint x="253.22" y="770" as="sourcePoint" />
            <mxPoint x="80" y="660" as="targetPoint" />
            <Array as="points">
              <mxPoint x="290" y="770" />
              <mxPoint x="290" y="650" />
              <mxPoint x="85" y="650" />
            </Array>
          </mxGeometry>
        </mxCell>
        <mxCell id="mkcxDaNmDi7V5uVBcCaA-24" value="" style="shape=image;verticalLabelPosition=bottom;labelBackgroundColor=default;verticalAlign=top;aspect=fixed;imageAspect=0;image=https://miro.medium.com/v2/resize:fit:1400/1*An25ihShzJkhL3jAwUaWfg.png;" vertex="1" parent="1">
          <mxGeometry x="380" y="648" width="120" height="120" as="geometry" />
        </mxCell>
        <mxCell id="mkcxDaNmDi7V5uVBcCaA-26" value="" style="endArrow=classic;html=1;rounded=0;entryX=0.682;entryY=-0.017;entryDx=0;entryDy=0;entryPerimeter=0;exitX=0;exitY=0.25;exitDx=0;exitDy=0;curved=1;fillColor=#fa6800;strokeColor=#C73500;" edge="1" parent="1" source="mkcxDaNmDi7V5uVBcCaA-24" target="mkcxDaNmDi7V5uVBcCaA-18">
          <mxGeometry width="50" height="50" relative="1" as="geometry">
            <mxPoint x="300" y="690" as="sourcePoint" />
            <mxPoint x="350" y="640" as="targetPoint" />
            <Array as="points">
              <mxPoint x="300" y="640" />
            </Array>
          </mxGeometry>
        </mxCell>
        <mxCell id="mkcxDaNmDi7V5uVBcCaA-27" value="" style="endArrow=classic;html=1;rounded=0;entryX=0.5;entryY=1;entryDx=0;entryDy=0;exitX=0;exitY=1;exitDx=0;exitDy=0;curved=1;fillColor=#fa6800;strokeColor=#C73500;" edge="1" parent="1" source="mkcxDaNmDi7V5uVBcCaA-24" target="mkcxDaNmDi7V5uVBcCaA-20">
          <mxGeometry width="50" height="50" relative="1" as="geometry">
            <mxPoint x="310" y="860" as="sourcePoint" />
            <mxPoint x="260" y="820" as="targetPoint" />
            <Array as="points">
              <mxPoint x="340" y="810" />
              <mxPoint x="250" y="820" />
            </Array>
          </mxGeometry>
        </mxCell>
        <mxCell id="mkcxDaNmDi7V5uVBcCaA-28" value="1. Monitor PRs" style="text;html=1;align=center;verticalAlign=middle;resizable=0;points=[];autosize=1;strokeColor=none;fillColor=none;fontColor=#CC6600;fontStyle=1;fontSize=11;" vertex="1" parent="1">
          <mxGeometry x="310" y="680" width="100" height="30" as="geometry" />
        </mxCell>
        <mxCell id="mkcxDaNmDi7V5uVBcCaA-31" value="Cluster" style="rounded=0;whiteSpace=wrap;html=1;fillColor=none;fontColor=#0066CC;strokeColor=#006EAF;labelPosition=center;verticalLabelPosition=top;align=center;verticalAlign=bottom;fontStyle=1" vertex="1" parent="1">
          <mxGeometry x="560" y="570" width="240" height="240" as="geometry" />
        </mxCell>
        <mxCell id="mkcxDaNmDi7V5uVBcCaA-30" value="" style="editableCssRules=.*;html=1;shape=image;verticalLabelPosition=bottom;labelBackgroundColor=#ffffff;verticalAlign=top;aspect=fixed;imageAspect=0;image=data:image/svg+xml,PHN2ZyB4bWxucz0iaHR0cDovL3d3dy53My5vcmcvMjAwMC9zdmciIHhtbG5zOnY9Imh0dHBzOi8vdmVjdGEuaW8vbmFubyIgd2lkdGg9IjcwMi44NDYzMTM0NzY1NjI1IiBoZWlnaHQ9IjY4MS45NjcxMDIwNTA3ODEyIiB2aWV3Qm94PSIxMC4wMDEwMjYxNTM1NjQ0NTMgMTAuMDAwOTMzNjQ3MTU1NzYyIDcwMi44NDYzMTM0NzY1NjI1IDY4MS45NjcxMDIwNTA3ODEyIj4mI3hhOwk8c3R5bGUgdHlwZT0idGV4dC9jc3MiPiYjeGE7CS5zdDB7ZmlsbDojMzI2Y2U1O30mI3hhOwkuc3Qxe2ZpbGw6I2ZmZjt9JiN4YTsJPC9zdHlsZT4mI3hhOwk8cGF0aCBjbGFzcz0ic3QwIiBkPSJNMzU4Ljk4NyAxMC4wNmMtNi4yMTMuMzEzLTEyLjMwMSAxLjg1NC0xNy45MDYgNC41MzFMOTYuNzM3IDEzMS4zNDJjLTEyLjgxMSA2LjExOC0yMi4xMTYgMTcuNjg5LTI1LjI4MSAzMS40MzhsLTYwLjI4MSAyNjIuMjVjLTIuODEyIDEyLjIwNy0uNTI0IDI1LjAyNCA2LjM0NCAzNS41MzFhNDYuMzUgNDYuMzUgMCAwIDAgMi42NTYgMy42ODhsMTY5LjEyNSAyMTAuMjgxYzguODY4IDExLjAyMiAyMi4zMTMgMTcuNDQgMzYuNTMxIDE3LjQzOGwyNzEuMjE5LS4wNjJjMTQuMjEyLjAxIDI3LjY1Ny02LjM5NiAzNi41MzEtMTcuNDA2bDE2OS4wNjMtMjEwLjMxM2M4Ljg3My0xMS4wMjggMTIuMTk3LTI1LjQ2NCA5LjAzMS0zOS4yMTlsLTYwLjM3NS0yNjIuMjVjLTMuMTY1LTEzLjc0OC0xMi40Ny0yNS4zMTktMjUuMjgxLTMxLjQzN0wzODEuNjQzIDE0LjU5MmMtNy4wNS0zLjM2OC0xNC44NDEtNC45MjYtMjIuNjU2LTQuNTMxeiIvPiYjeGE7CTxwYXRoIGNsYXNzPSJzdDEgc3QyIiBkPSJNMzYxLjQwOCA5OS4zMDhjLTguMDc3LjAwMS0xNC42MjYgNy4yNzYtMTQuNjI1IDE2LjI1IDAgLjEzOC4wMjguMjY5LjAzMS40MDYtLjAxMiAxLjIxOS0uMDcxIDIuNjg4LS4wMzEgMy43NS4xOTMgNS4xNzYgMS4zMjEgOS4xMzcgMiAxMy45MDYgMS4yMyAxMC4yMDcgMi4yNjEgMTguNjY3IDEuNjI1IDI2LjUzMS0uNjE5IDIuOTY1LTIuODAzIDUuNjc3LTQuNzUgNy41NjNsLS4zNDQgNi4xODhjLTguNzc3LjcyNy0xNy42MTIgMi4wNTktMjYuNDM3IDQuMDYzLTM3Ljk3NSA4LjYyMi03MC42NyAyOC4xODMtOTUuNTYyIDU0LjU5NC0xLjYxNS0xLjEwMi00LjQ0MS0zLjEyOS01LjI4MS0zLjc1LTIuNjExLjM1My01LjI1IDEuMTU4LTguNjg3LS44NDQtNi41NDUtNC40MDYtMTIuNTA2LTEwLjQ4Ny0xOS43MTktMTcuODEyLTMuMzA1LTMuNTA0LTUuNjk4LTYuODQxLTkuNjI1LTEwLjIxOS0uODkyLS43NjctMi4yNTMtMS44MDUtMy4yNS0yLjU5NC0zLjA3LTIuNDQ4LTYuNjkxLTMuNzI0LTEwLjE4Ny0zLjg0NC00LjQ5Ni0uMTU0LTguODI0IDEuNjA0LTExLjY1NiA1LjE1Ni01LjAzNSA2LjMxNS0zLjQyMyAxNS45NjggMy41OTQgMjEuNTYzLjA3MS4wNTcuMTQ3LjEwMS4yMTkuMTU2Ljk2NC43ODIgMi4xNDUgMS43ODMgMy4wMzEgMi40MzggNC4xNjcgMy4wNzcgNy45NzMgNC42NTEgMTIuMTI1IDcuMDk0IDguNzQ3IDUuNDAyIDE1Ljk5OCA5Ljg4MSAyMS43NSAxNS4yODEgMi4yNDYgMi4zOTQgMi42MzkgNi42MTMgMi45MzggOC40MzhsNC42ODggNC4xODhjLTI1LjA5MyAzNy43NjQtMzYuNzA3IDg0LjQwOS0yOS44NDQgMTMxLjkzOGwtNi4xMjUgMS43ODFjLTEuNjE0IDIuMDg1LTMuODk1IDUuMzY1LTYuMjgxIDYuMzQ0LTcuNTI1IDIuMzctMTUuOTk0IDMuMjQxLTI2LjIxOSA0LjMxMy00LjguMzk5LTguOTQyLjE2MS0xNC4wMzEgMS4xMjUtMS4xMi4yMTItMi42ODEuNjE5LTMuOTA2LjkwNi0uMDQzLjAwOS0uMDgyLjAyMi0uMTI1LjAzMS0uMDY3LjAxNS0uMTU1LjA0OC0uMjE5LjA2My04LjYyIDIuMDgzLTE0LjE1OCAxMC4wMDYtMTIuMzc1IDE3LjgxM3MxMC4yMDMgMTIuNTU3IDE4Ljg3NSAxMC42ODhjLjA2My0uMDE0LjE1NC0uMDE3LjIxOS0uMDMxLjA5OC0uMDIyLjE4NC0uMDcuMjgxLS4wOTQgMS4yMDktLjI2NSAyLjcyNC0uNTYxIDMuNzgxLS44NDQgNS4wMDMtMS4zNCA4LjYyNy0zLjMwOCAxMy4xMjUtNS4wMzEgOS42NzctMy40NzEgMTcuNjkyLTYuMzcgMjUuNS03LjUgMy4yNjEtLjI1NSA2LjY5NyAyLjAxMiA4LjQwNiAyLjk2OWw2LjM3NS0xLjA5NGMxNC42NyA0NS40ODMgNDUuNDE0IDgyLjI0NSA4NC4zNDQgMTA1LjMxMmwtMi42NTYgNi4zNzVjLjk1NyAyLjQ3NSAyLjAxMyA1LjgyNSAxLjMgOC4yNjktMi44MzkgNy4zNjEtNy43MDEgMTUuMTMxLTEzLjIzOCAyMy43OTMtMi42ODEgNC4wMDItNS40MjUgNy4xMDgtNy44NDQgMTEuNjg4LS41NzkgMS4wOTYtMS4zMTYgMi43NzktMS44NzUgMy45MzgtMy43NTkgOC4wNDItMS4wMDIgMTcuMzA1IDYuMjE5IDIwLjc4MSA3LjI2NiAzLjQ5OCAxNi4yODQtLjE5MSAyMC4xODctOC4yNS4wMDYtLjAxMS4wMjYtLjAyLjAzMS0uMDMxcy0uMDA0LS4wMjMgMC0uMDMxYy41NTYtMS4xNDMgMS4zNDQtMi42NDQgMS44MTMtMy43MTkgMi4wNzItNC43NDcgMi43NjItOC44MTUgNC4yMTktMTMuNDA2IDMuODctOS43MiA1Ljk5Ni0xOS45MTkgMTEuMzIzLTI2LjI3NCAxLjQ1OS0xLjc0IDMuODM3LTIuNDA5IDYuMzAyLTMuMDdsMy4zMTMtNmMzMy45MzggMTMuMDI3IDcxLjkyNyAxNi41MjIgMTA5Ljg3NSA3LjkwNmExODkuNzcgMTg5Ljc3IDAgMCAwIDI1LjA5NC03LjU2MmwzLjEyNSA1LjYyNWMyLjUwNi44MTUgNS4yNCAxLjIzNiA3LjQ2OSA0LjUzMSAzLjk4NSA2LjgwOSA2LjcxMSAxNC44NjQgMTAuMDMxIDI0LjU5NCAxLjQ1NyA0LjU5MSAyLjE3OCA4LjY1OSA0LjI1IDEzLjQwNi40NzIgMS4wODIgMS4yNTYgMi42MDUgMS44MTMgMy43NSAzLjg5NSA4LjA4NSAxMi45NDIgMTEuNzg3IDIwLjIxOSA4LjI4MSA3LjIxOS0zLjQ3OCA5Ljk4LTEyLjc0IDYuMjE5LTIwLjc4MWwtMS45MDYtMy45MzdjLTIuNDE5LTQuNTgtNS4xNjMtNy42NTQtNy44NDQtMTEuNjU2LTUuNTM3LTguNjYyLTEwLjEzLTE1Ljg1OC0xMi45NjktMjMuMjE5LTEuMTg3LTMuNzk3LjItNi4xNTggMS4xMjUtOC42MjUtLjU1NC0uNjM1LTEuNzM5LTQuMjItMi40MzctNS45MDYgNDAuNDU3LTIzLjg4OCA3MC4yOTktNjIuMDIxIDg0LjMxMy0xMDYuMDYyIDEuODkyLjI5NyA1LjE4Mi44NzkgNi4yNSAxLjA5NCAyLjItMS40NTEgNC4yMjItMy4zNDQgOC4xODgtMy4wMzEgNy44MDggMS4xMjkgMTUuODIzIDQuMDMgMjUuNSA3LjUgNC40OTggMS43MjMgOC4xMjIgMy43MjMgMTMuMTI1IDUuMDYzIDEuMDU3LjI4MyAyLjU3Mi41NDcgMy43ODEuODEzLjA5Ny4wMjQuMTgzLjA3MS4yODEuMDk0LjA2NS4wMTUuMTU2LjAxNy4yMTkuMDMxIDguNjcyIDEuODY3IDE3LjA5NC0yLjg3OSAxOC44NzUtMTAuNjg3cy0zLjc1NC0xNS43MzItMTIuMzc1LTE3LjgxMmMtMS4yNTQtLjI4NS0zLjAzMi0uNzY5LTQuMjUtMS01LjA4OS0uOTY0LTkuMjMxLS43MjYtMTQuMDMxLTEuMTI1LTEwLjIyNS0xLjA3MS0xOC42OTMtMS45NDMtMjYuMjE5LTQuMzEyLTMuMDY4LTEuMTktNS4yNTEtNC44NDEtNi4zMTMtNi4zNDRsLTUuOTA2LTEuNzE5YzMuMDYyLTIyLjE1NCAyLjIzNy00NS4yMTEtMy4wNjItNjguMjgxLTUuMzQ4LTIzLjI4NS0xNC44LTQ0LjU4MS0yNy40MDYtNjMuMzQ0bDUuMTg4LTQuNjU2Yy4yMzctMi42MjQuMDMzLTUuMzc2IDIuNzUtOC4yODEgNS43NTEtNS40MDEgMTMuMDAzLTkuODc5IDIxLjc1LTE1LjI4MSA0LjE1Mi0yLjQ0MyA3Ljk5LTQuMDE3IDEyLjE1Ni03LjA5NC45NDItLjY5NiAyLjIyOS0xLjc5OCAzLjIxOS0yLjU5NCA3LjAxNS01LjU5NiA4LjYzMS0xNS4yNDggMy41OTQtMjEuNTYycy0xNC43OTctNi45MDktMjEuODEyLTEuMzEyYy0uOTk5Ljc5MS0yLjM1NCAxLjgyMy0zLjI1IDIuNTk0LTMuOTI3IDMuMzc4LTYuMzUxIDYuNzE0LTkuNjU2IDEwLjIxOS03LjIxMiA3LjMyNi0xMy4xNzQgMTMuNDM4LTE5LjcxOSAxNy44NDQtMi44MzYgMS42NTEtNi45OSAxLjA4LTguODc1Ljk2OWwtNS41NjIgMy45NjljLTMxLjcxOS0zMy4yNjEtNzQuOTA1LTU0LjUyNS0xMjEuNDA2LTU4LjY1NmwtLjM0NC02LjUzMWMtMS45MDQtMS44MjItNC4yMDMtMy4zNzctNC43ODEtNy4zMTItLjYzNi03Ljg2NC40MjYtMTYuMzI1IDEuNjU2LTI2LjUzMS42NzktNC43NjkgMS44MDctOC43MyAyLTEzLjkwNi4wNDQtMS4xNzctLjAyNi0yLjg4NC0uMDMxLTQuMTU2LS4wMDEtOC45NzQtNi41NDgtMTYuMjUxLTE0LjYyNS0xNi4yNXptLTE4LjMxMiAxMTMuNDM4bC00LjM0NCA3Ni43MTktLjMxMi4xNTZjLS4yOTEgNi44NjMtNS45NCAxMi4zNDQtMTIuODc1IDEyLjM0NGExMi44MiAxMi44MiAwIDAgMS03LjU5NC0yLjQ2OWwtLjEyNS4wNjMtNjIuOTA2LTQ0LjU5NGMxOS4zMzQtMTkuMDExIDQ0LjA2My0zMy4wNiA3Mi41NjItMzkuNTMxIDUuMjA2LTEuMTgyIDEwLjQxLTIuMDU5IDE1LjU5NC0yLjY4N3ptMzYuNjU2IDBjMzMuMjczIDQuMDkyIDY0LjA0NSAxOS4xNTkgODcuNjI1IDQyLjI1bC02Mi41IDQ0LjMxMy0uMjE5LS4wOTRhMTIuOTEgMTIuOTEgMCAwIDEtMTcuNjg3LTIuMzc1Yy0xLjc3MS0yLjIyMS0yLjcwMS00LjgzMi0yLjgxMi03LjQ2OWwtLjA2Mi0uMDMxek0yMzIuMTI2IDI4My42Mmw1Ny40MzcgNTEuMzc1LS4wNjIuMzEzYTEyLjg4IDEyLjg4IDAgMCAxIDEuNjI1IDE3Ljc1IDEyLjg5IDEyLjg5IDAgMCAxLTYuNjg3IDQuNDA2bC0uMDYyLjI1LTczLjYyNSAyMS4yNWMtMy43NDctMzQuMjY1IDQuMzI5LTY3LjU3NCAyMS4zNzUtOTUuMzQ0em0yNTguMTU2LjAzMWM4LjUzNCAxMy44MzMgMTQuOTk3IDI5LjI4MiAxOC44NDQgNDYuMDMxIDMuODAxIDE2LjU0OCA0Ljc1NSAzMy4wNjcgMy4xODggNDkuMDMxbC03NC0yMS4zMTItLjA2Mi0uMzEyYy02LjYyNy0xLjgxMS0xMC42OTktOC41NTItOS4xNTYtMTUuMzEyLjYzMi0yLjc3IDIuMTAyLTUuMTEzIDQuMDk0LTYuODQ0bC0uMDMxLS4xNTYgNTcuMTI1LTUxLjEyNXptLTE0MC42NTYgNTUuMzEzaDIzLjUzMWwxNC42MjUgMTguMjgxLTUuMjUgMjIuODEzLTIxLjEyNSAxMC4xNTYtMjEuMTg3LTEwLjE4Ny01LjI1LTIyLjgxMnptNzUuNDM4IDYyLjU2M2ExMi44MyAxMi44MyAwIDAgMSAyLjk2OS4yMTlsLjEyNS0uMTU2IDc2LjE1NiAxMi44NzVjLTExLjE0NiAzMS4zMTMtMzIuNDczIDU4LjQ0LTYwLjk2OSA3Ni41OTRsLTI5LjU2Mi03MS40MDYuMDk0LS4xMjVjLTIuNzE2LTYuMzEuMDAyLTEzLjcxIDYuMjUtMTYuNzE5IDEuNi0uNzcgMy4yNzEtMS4xOTcgNC45MzgtMS4yODF6bS0xMjcuOTA2LjMxM2ExMi45IDEyLjkgMCAwIDEgMTIuMzc1IDEwLjAzMSAxMi43NyAxMi43NyAwIDAgMS0uNzE5IDcuOTM4bC4yMTkuMjgxLTI5LjI1IDcwLjY4OGMtMjcuMzQ3LTE3LjU0OS00OS4xMjktNDMuODI0LTYwLjc4MS03Ni4wNjJsNzUuNS0xMi44MTIuMTI1LjE1NmMuODQ1LS4xNTUgMS43MDEtLjIzIDIuNTMxLS4yMTl6bTYzLjc4MSAzMC45NjljMi4wMjQtLjA3NCA0LjA3OS4zNDEgNi4wMzEgMS4yODEgMi41NiAxLjIzMyA0LjUzNyAzLjE3MyA1Ljc4MSA1LjVoLjI4MWwzNy4yMTkgNjcuMjVjLTQuODMgMS42MTktOS43OTYgMy4wMDMtMTQuODc1IDQuMTU2LTI4LjQ2NSA2LjQ2My01Ni44MzkgNC41MDUtODIuNTMxLTQuMjVsMzcuMTI1LTY3LjEyNWguMDYzYTEyLjkxIDEyLjkxIDAgMCAxIDEwLjkwNi02LjgxMnoiIHN0cm9rZT0ibm9uZSIgc3Ryb2tlLXdpZHRoPSIuMjUiLz4mI3hhOzwvc3ZnPg==;fontColor=default;" vertex="1" parent="1">
          <mxGeometry x="770" y="550" width="52.63" height="50" as="geometry" />
        </mxCell>
        <mxCell id="mkcxDaNmDi7V5uVBcCaA-33" value="vcluster" style="rounded=0;whiteSpace=wrap;html=1;fillColor=none;fontColor=#CC6600;strokeColor=#C73500;dashed=1;dashPattern=8 8;fontStyle=1;labelPosition=center;verticalLabelPosition=top;align=center;verticalAlign=bottom;" vertex="1" parent="1">
          <mxGeometry x="580" y="610" width="200" height="180" as="geometry" />
        </mxCell>
        <mxCell id="mkcxDaNmDi7V5uVBcCaA-32" value="" style="shape=image;verticalLabelPosition=bottom;labelBackgroundColor=default;verticalAlign=top;aspect=fixed;imageAspect=0;image=https://desktop.docker.com/extensions/loftsh_vcluster-dd-extension/i_ibb_co/mXhVjv8/vcluster.png;" vertex="1" parent="1">
          <mxGeometry x="571" y="593" width="40" height="40" as="geometry" />
        </mxCell>
        <mxCell id="mkcxDaNmDi7V5uVBcCaA-34" value="namespace: &lt;b&gt;pr-1&lt;/b&gt;" style="rounded=0;whiteSpace=wrap;html=1;dashed=1;fillColor=none;labelPosition=center;verticalLabelPosition=top;align=center;verticalAlign=bottom;" vertex="1" parent="1">
          <mxGeometry x="620" y="633" width="120" height="60" as="geometry" />
        </mxCell>
        <mxCell id="mkcxDaNmDi7V5uVBcCaA-35" value="namespace: &lt;b&gt;pr-2&lt;/b&gt;" style="rounded=0;whiteSpace=wrap;html=1;dashed=1;fillColor=none;labelPosition=center;verticalLabelPosition=top;align=center;verticalAlign=bottom;" vertex="1" parent="1">
          <mxGeometry x="620" y="720" width="120" height="60" as="geometry" />
        </mxCell>
        <mxCell id="mkcxDaNmDi7V5uVBcCaA-36" value="app-pr-1" style="aspect=fixed;sketch=0;html=1;dashed=0;whitespace=wrap;fillColor=#2875E2;strokeColor=#ffffff;points=[[0.005,0.63,0],[0.1,0.2,0],[0.9,0.2,0],[0.5,0,0],[0.995,0.63,0],[0.72,0.99,0],[0.5,1,0],[0.28,0.99,0]];shape=mxgraph.kubernetes.icon2;prIcon=pod;labelPosition=right;verticalLabelPosition=middle;align=left;verticalAlign=middle;" vertex="1" parent="1">
          <mxGeometry x="630" y="642" width="39.58" height="38" as="geometry" />
        </mxCell>
        <mxCell id="mkcxDaNmDi7V5uVBcCaA-37" value="app-pr-2" style="aspect=fixed;sketch=0;html=1;dashed=0;whitespace=wrap;fillColor=#2875E2;strokeColor=#ffffff;points=[[0.005,0.63,0],[0.1,0.2,0],[0.9,0.2,0],[0.5,0,0],[0.995,0.63,0],[0.72,0.99,0],[0.5,1,0],[0.28,0.99,0]];shape=mxgraph.kubernetes.icon2;prIcon=pod;labelPosition=right;verticalLabelPosition=middle;align=left;verticalAlign=middle;" vertex="1" parent="1">
          <mxGeometry x="630" y="730" width="39.58" height="38" as="geometry" />
        </mxCell>
        <mxCell id="mkcxDaNmDi7V5uVBcCaA-38" value="" style="endArrow=classic;html=1;rounded=0;entryX=0;entryY=0.25;entryDx=0;entryDy=0;curved=1;strokeColor=#CC6600;" edge="1" parent="1" source="mkcxDaNmDi7V5uVBcCaA-24" target="mkcxDaNmDi7V5uVBcCaA-34">
          <mxGeometry width="50" height="50" relative="1" as="geometry">
            <mxPoint x="500" y="700" as="sourcePoint" />
            <mxPoint x="550" y="650" as="targetPoint" />
            <Array as="points">
              <mxPoint x="540" y="630" />
            </Array>
          </mxGeometry>
        </mxCell>
        <mxCell id="mkcxDaNmDi7V5uVBcCaA-39" value="" style="endArrow=classic;html=1;rounded=0;entryX=0;entryY=0.5;entryDx=0;entryDy=0;exitX=1;exitY=1;exitDx=0;exitDy=0;curved=1;strokeColor=#CC6600;" edge="1" parent="1" source="mkcxDaNmDi7V5uVBcCaA-24" target="mkcxDaNmDi7V5uVBcCaA-35">
          <mxGeometry width="50" height="50" relative="1" as="geometry">
            <mxPoint x="470" y="830" as="sourcePoint" />
            <mxPoint x="500" y="850" as="targetPoint" />
            <Array as="points">
              <mxPoint x="540" y="810" />
            </Array>
          </mxGeometry>
        </mxCell>
        <mxCell id="mkcxDaNmDi7V5uVBcCaA-40" value="2. Create &lt;br&gt;preview envs" style="text;html=1;align=center;verticalAlign=middle;resizable=0;points=[];autosize=1;strokeColor=none;fillColor=none;fontColor=#CC6600;fontStyle=1;fontSize=11;" vertex="1" parent="1">
          <mxGeometry x="460" y="680" width="90" height="40" as="geometry" />
        </mxCell>
        <mxCell id="mkcxDaNmDi7V5uVBcCaA-41" value="" style="endArrow=classic;html=1;rounded=0;exitX=0.25;exitY=0;exitDx=0;exitDy=0;entryX=1;entryY=0.25;entryDx=0;entryDy=0;curved=1;strokeColor=#CC6600;" edge="1" parent="1" source="mkcxDaNmDi7V5uVBcCaA-24" target="mkcxDaNmDi7V5uVBcCaA-12">
          <mxGeometry width="50" height="50" relative="1" as="geometry">
            <mxPoint x="420" y="630" as="sourcePoint" />
            <mxPoint x="140" y="550" as="targetPoint" />
            <Array as="points">
              <mxPoint x="350" y="530" />
            </Array>
          </mxGeometry>
        </mxCell>
        <mxCell id="mkcxDaNmDi7V5uVBcCaA-42" value="3. Notify&lt;br&gt;deploy status" style="text;html=1;align=center;verticalAlign=middle;resizable=0;points=[];autosize=1;strokeColor=none;fillColor=none;fontColor=#CC6600;fontStyle=1;fontSize=11;" vertex="1" parent="1">
          <mxGeometry x="250" y="570" width="90" height="40" as="geometry" />
        </mxCell>
      </root>
    </mxGraphModel>
  </diagram>
  <diagram id="QPTbN74MI0jN7nZj_ww6" name="Page-2">
    <mxGraphModel dx="4437" dy="1722" grid="1" gridSize="10" guides="1" tooltips="1" connect="1" arrows="1" fold="1" page="1" pageScale="1" pageWidth="850" pageHeight="1100" math="0" shadow="0">
      <root>
        <mxCell id="0" />
        <mxCell id="1" parent="0" />
        <mxCell id="KptZjxkiM9GZ7vo7AfT4-2" value="Trunk" style="text;html=1;align=center;verticalAlign=middle;resizable=0;points=[];autosize=1;strokeColor=#b85450;fillColor=#f8cecc;rounded=1;fontStyle=1;shadow=0;" vertex="1" parent="1">
          <mxGeometry x="70" y="464" width="50" height="30" as="geometry" />
        </mxCell>
        <mxCell id="KptZjxkiM9GZ7vo7AfT4-3" value="" style="endArrow=none;html=1;rounded=1;curved=0;fillColor=#dae8fc;strokeColor=#6c8ebf;" edge="1" parent="1">
          <mxGeometry width="50" height="50" relative="1" as="geometry">
            <mxPoint x="170" y="480" as="sourcePoint" />
            <mxPoint x="240" y="430" as="targetPoint" />
            <Array as="points">
              <mxPoint x="200" y="430" />
            </Array>
          </mxGeometry>
        </mxCell>
        <mxCell id="KptZjxkiM9GZ7vo7AfT4-4" value="feat/number-1" style="text;html=1;align=center;verticalAlign=middle;resizable=0;points=[];autosize=1;strokeColor=#6c8ebf;fillColor=#dae8fc;rounded=1;fontStyle=1;fontSize=7;glass=0;shadow=0;strokeWidth=1;" vertex="1" parent="1">
          <mxGeometry x="120" y="420" width="70" height="20" as="geometry" />
        </mxCell>
        <mxCell id="KptZjxkiM9GZ7vo7AfT4-7" value="" style="endArrow=none;html=1;rounded=0;exitX=1;exitY=0.5;exitDx=0;exitDy=0;fillColor=#dae8fc;strokeColor=#6c8ebf;" edge="1" parent="1" source="KptZjxkiM9GZ7vo7AfT4-5">
          <mxGeometry width="50" height="50" relative="1" as="geometry">
            <mxPoint x="280" y="470" as="sourcePoint" />
            <mxPoint x="270" y="430" as="targetPoint" />
          </mxGeometry>
        </mxCell>
        <mxCell id="KptZjxkiM9GZ7vo7AfT4-8" value="" style="endArrow=none;html=1;rounded=0;exitX=1;exitY=0.5;exitDx=0;exitDy=0;dashed=1;fillColor=#dae8fc;strokeColor=#6c8ebf;" edge="1" parent="1">
          <mxGeometry width="50" height="50" relative="1" as="geometry">
            <mxPoint x="270" y="429.96999999999997" as="sourcePoint" />
            <mxPoint x="294" y="429.96999999999997" as="targetPoint" />
          </mxGeometry>
        </mxCell>
        <mxCell id="KptZjxkiM9GZ7vo7AfT4-9" value="" style="endArrow=none;html=1;rounded=0;strokeWidth=3;dashed=1;fillColor=#f8cecc;strokeColor=#b85450;" edge="1" parent="1">
          <mxGeometry width="50" height="50" relative="1" as="geometry">
            <mxPoint x="290" y="479.97" as="sourcePoint" />
            <mxPoint x="340" y="480" as="targetPoint" />
          </mxGeometry>
        </mxCell>
        <mxCell id="OUm_KwsajHJ4eiBkqCVf-1" value="" style="endArrow=classic;html=1;rounded=0;entryX=0;entryY=0.75;entryDx=0;entryDy=0;endSize=3;" edge="1" parent="1" target="OUm_KwsajHJ4eiBkqCVf-3">
          <mxGeometry width="50" height="50" relative="1" as="geometry">
            <mxPoint x="243" y="427" as="sourcePoint" />
            <mxPoint x="300" y="400" as="targetPoint" />
          </mxGeometry>
        </mxCell>
        <mxCell id="KptZjxkiM9GZ7vo7AfT4-5" value="" style="ellipse;whiteSpace=wrap;html=1;aspect=fixed;fillColor=none;strokeColor=#6c8ebf;" vertex="1" parent="1">
          <mxGeometry x="240" y="427" width="6" height="6" as="geometry" />
        </mxCell>
        <mxCell id="OUm_KwsajHJ4eiBkqCVf-2" value="" style="editableCssRules=.*;html=1;shape=image;verticalLabelPosition=bottom;labelBackgroundColor=#ffffff;verticalAlign=top;aspect=fixed;imageAspect=0;image=data:image/svg+xml,PHN2ZyB4bWxucz0iaHR0cDovL3d3dy53My5vcmcvMjAwMC9zdmciIHhtbG5zOnY9Imh0dHBzOi8vdmVjdGEuaW8vbmFubyIgd2lkdGg9IjIxLjk5OTAwMDU0OTMxNjQwNiIgaGVpZ2h0PSIyMC4zOTM5OTkwOTk3MzE0NDUiIHZpZXdCb3g9IjAgMCAyMS45OTkwMDA1NDkzMTY0MDYgMjAuMzkzOTk5MDk5NzMxNDQ1Ij4mI3hhOwk8c3R5bGUgdHlwZT0idGV4dC9jc3MiPiYjeGE7CS5zdDB7ZmlsbDojNDI4NWY0O2ZpbGwtcnVsZTpldmVub2RkfSYjeGE7CTwvc3R5bGU+JiN4YTsJPHBhdGggY2xhc3M9InN0MCIgZD0iTTUgMHYyLjQ1OEwxLjk5OSA0LjE5N3YxMi4wMUw1IDE3LjkzOHYyLjQ1NmwtNS0yLjg4N1YyLjg4NnptMTIgMGw0Ljk5OSAyLjg4NnYxNC42MjFMMTcgMjAuMzk0di0yLjQ1NmwzLTEuNzMxVjQuMTk3bC0zLTEuNzM5em0tNi4wMTYgNi42NzNsMi45NDctMS42NDYtMi45NDctMS42NDYtMi45NDcgMS42NDZ6bTMuMjY4LTEuMDk2bC0yLjg3MSAxLjY3OHYzLjI4N2wyLjg3MS0xLjY3NnpNNy43NzMgOC44NjZsMi44NzEgMS42NzRWNy4yNTZMNy43NzMgNS41Nzd6bS0uMjEyIDMuODc4bDIuODItMS42NDYtMi44Mi0xLjY0Ni0yLjgyIDEuNjQ2em0zLjEzMi0xLjA5OGwtMi44NzEgMS42Nzh2My4yODdsMi44NzEtMS42NzZ6bS02LjI2NCAzLjI4OUw3LjMgMTYuNjA5di0zLjI4NWwtMi44NzEtMS42Nzl6bTEwLjAyOS0yLjE5MWwyLjgyLTEuNjQ2LTIuODItMS42NDYtMi44MiAxLjY0NnptMy4xMzItMS4wOThsLTIuODcxIDEuNjc4djMuMjg3bDIuODcxLTEuNjc2em0tNi4yNjQgMy4yODlsMi44NzEgMS42NzR2LTMuMjg1bC0yLjg3MS0xLjY3OXoiLz4mI3hhOzwvc3ZnPg==;" vertex="1" parent="1">
          <mxGeometry x="330" y="356" width="33.33" height="30" as="geometry" />
        </mxCell>
        <mxCell id="OUm_KwsajHJ4eiBkqCVf-3" value="image:&lt;b&gt;sha-1&lt;/b&gt;&lt;br style=&quot;font-size: 8px;&quot;&gt;image:&lt;b&gt;pr-1&lt;/b&gt;" style="rounded=1;whiteSpace=wrap;html=1;fillColor=none;fontSize=8;" vertex="1" parent="1">
          <mxGeometry x="311.67" y="388" width="69.99" height="30" as="geometry" />
        </mxCell>
        <mxCell id="OUm_KwsajHJ4eiBkqCVf-5" value="" style="shape=image;verticalLabelPosition=bottom;labelBackgroundColor=default;verticalAlign=top;aspect=fixed;imageAspect=0;image=https://upload.wikimedia.org/wikipedia/commons/thumb/8/87/Octicons-git-pull-request.svg/1200px-Octicons-git-pull-request.svg.png;" vertex="1" parent="1">
          <mxGeometry x="336.67" y="420" width="15" height="20" as="geometry" />
        </mxCell>
        <mxCell id="OUm_KwsajHJ4eiBkqCVf-6" value="" style="endArrow=classic;html=1;rounded=0;entryX=-0.155;entryY=0.491;entryDx=0;entryDy=0;entryPerimeter=0;fontSize=9;endSize=3;" edge="1" parent="1" target="OUm_KwsajHJ4eiBkqCVf-5">
          <mxGeometry width="50" height="50" relative="1" as="geometry">
            <mxPoint x="300" y="430" as="sourcePoint" />
            <mxPoint x="320" y="430" as="targetPoint" />
          </mxGeometry>
        </mxCell>
        <mxCell id="OUm_KwsajHJ4eiBkqCVf-7" value="create PR" style="text;html=1;align=center;verticalAlign=middle;resizable=0;points=[];autosize=1;strokeColor=none;fillColor=none;fontSize=9;" vertex="1" parent="1">
          <mxGeometry x="298" y="435" width="60" height="20" as="geometry" />
        </mxCell>
        <mxCell id="OUm_KwsajHJ4eiBkqCVf-9" value="Trunk" style="text;html=1;align=center;verticalAlign=middle;resizable=0;points=[];autosize=1;strokeColor=#b85450;fillColor=#f8cecc;rounded=1;fontStyle=1;shadow=0;" vertex="1" parent="1">
          <mxGeometry x="70" y="610" width="50" height="30" as="geometry" />
        </mxCell>
        <mxCell id="OUm_KwsajHJ4eiBkqCVf-10" value="" style="endArrow=none;html=1;rounded=1;curved=0;fillColor=#dae8fc;strokeColor=#6c8ebf;" edge="1" parent="1">
          <mxGeometry width="50" height="50" relative="1" as="geometry">
            <mxPoint x="170" y="626" as="sourcePoint" />
            <mxPoint x="240" y="576" as="targetPoint" />
            <Array as="points">
              <mxPoint x="200" y="576" />
            </Array>
          </mxGeometry>
        </mxCell>
        <mxCell id="OUm_KwsajHJ4eiBkqCVf-11" value="feat/number-1" style="text;html=1;align=center;verticalAlign=middle;resizable=0;points=[];autosize=1;strokeColor=#6c8ebf;fillColor=#dae8fc;rounded=1;fontStyle=1;fontSize=7;glass=0;shadow=0;strokeWidth=1;" vertex="1" parent="1">
          <mxGeometry x="120" y="566" width="70" height="20" as="geometry" />
        </mxCell>
        <mxCell id="OUm_KwsajHJ4eiBkqCVf-13" value="" style="endArrow=none;html=1;rounded=0;exitX=1;exitY=0.5;exitDx=0;exitDy=0;fillColor=#dae8fc;strokeColor=#6c8ebf;entryX=0;entryY=0.5;entryDx=0;entryDy=0;" edge="1" parent="1" source="OUm_KwsajHJ4eiBkqCVf-17" target="OUm_KwsajHJ4eiBkqCVf-23">
          <mxGeometry width="50" height="50" relative="1" as="geometry">
            <mxPoint x="280" y="616" as="sourcePoint" />
            <mxPoint x="270" y="576" as="targetPoint" />
          </mxGeometry>
        </mxCell>
        <mxCell id="OUm_KwsajHJ4eiBkqCVf-14" value="" style="endArrow=none;html=1;rounded=0;exitX=1;exitY=0.5;exitDx=0;exitDy=0;dashed=1;fillColor=#dae8fc;strokeColor=#6c8ebf;" edge="1" parent="1">
          <mxGeometry width="50" height="50" relative="1" as="geometry">
            <mxPoint x="310" y="575.97" as="sourcePoint" />
            <mxPoint x="334" y="575.97" as="targetPoint" />
          </mxGeometry>
        </mxCell>
        <mxCell id="OUm_KwsajHJ4eiBkqCVf-15" value="" style="endArrow=none;html=1;rounded=0;strokeWidth=3;dashed=1;fillColor=#f8cecc;strokeColor=#b85450;" edge="1" parent="1">
          <mxGeometry width="50" height="50" relative="1" as="geometry">
            <mxPoint x="328" y="625.97" as="sourcePoint" />
            <mxPoint x="378" y="626" as="targetPoint" />
          </mxGeometry>
        </mxCell>
        <mxCell id="OUm_KwsajHJ4eiBkqCVf-17" value="" style="ellipse;whiteSpace=wrap;html=1;aspect=fixed;fillColor=none;strokeColor=#6c8ebf;" vertex="1" parent="1">
          <mxGeometry x="240" y="573" width="6" height="6" as="geometry" />
        </mxCell>
        <mxCell id="OUm_KwsajHJ4eiBkqCVf-18" value="" style="editableCssRules=.*;html=1;shape=image;verticalLabelPosition=bottom;labelBackgroundColor=#ffffff;verticalAlign=top;aspect=fixed;imageAspect=0;image=data:image/svg+xml,PHN2ZyB4bWxucz0iaHR0cDovL3d3dy53My5vcmcvMjAwMC9zdmciIHhtbG5zOnY9Imh0dHBzOi8vdmVjdGEuaW8vbmFubyIgd2lkdGg9IjIxLjk5OTAwMDU0OTMxNjQwNiIgaGVpZ2h0PSIyMC4zOTM5OTkwOTk3MzE0NDUiIHZpZXdCb3g9IjAgMCAyMS45OTkwMDA1NDkzMTY0MDYgMjAuMzkzOTk5MDk5NzMxNDQ1Ij4mI3hhOwk8c3R5bGUgdHlwZT0idGV4dC9jc3MiPiYjeGE7CS5zdDB7ZmlsbDojNDI4NWY0O2ZpbGwtcnVsZTpldmVub2RkfSYjeGE7CTwvc3R5bGU+JiN4YTsJPHBhdGggY2xhc3M9InN0MCIgZD0iTTUgMHYyLjQ1OEwxLjk5OSA0LjE5N3YxMi4wMUw1IDE3LjkzOHYyLjQ1NmwtNS0yLjg4N1YyLjg4NnptMTIgMGw0Ljk5OSAyLjg4NnYxNC42MjFMMTcgMjAuMzk0di0yLjQ1NmwzLTEuNzMxVjQuMTk3bC0zLTEuNzM5em0tNi4wMTYgNi42NzNsMi45NDctMS42NDYtMi45NDctMS42NDYtMi45NDcgMS42NDZ6bTMuMjY4LTEuMDk2bC0yLjg3MSAxLjY3OHYzLjI4N2wyLjg3MS0xLjY3NnpNNy43NzMgOC44NjZsMi44NzEgMS42NzRWNy4yNTZMNy43NzMgNS41Nzd6bS0uMjEyIDMuODc4bDIuODItMS42NDYtMi44Mi0xLjY0Ni0yLjgyIDEuNjQ2em0zLjEzMi0xLjA5OGwtMi44NzEgMS42Nzh2My4yODdsMi44NzEtMS42NzZ6bS02LjI2NCAzLjI4OUw3LjMgMTYuNjA5di0zLjI4NWwtMi44NzEtMS42Nzl6bTEwLjAyOS0yLjE5MWwyLjgyLTEuNjQ2LTIuODItMS42NDYtMi44MiAxLjY0NnptMy4xMzItMS4wOThsLTIuODcxIDEuNjc4djMuMjg3bDIuODcxLTEuNjc2em0tNi4yNjQgMy4yODlsMi44NzEgMS42NzR2LTMuMjg1bC0yLjg3MS0xLjY3OXoiLz4mI3hhOzwvc3ZnPg==;" vertex="1" parent="1">
          <mxGeometry x="378.33" y="504" width="33.33" height="30" as="geometry" />
        </mxCell>
        <mxCell id="OUm_KwsajHJ4eiBkqCVf-19" value="image:&lt;b&gt;sha-2&lt;/b&gt;&lt;br style=&quot;font-size: 8px;&quot;&gt;image:&lt;b&gt;pr-1&lt;/b&gt;" style="rounded=1;whiteSpace=wrap;html=1;fillColor=none;fontSize=8;" vertex="1" parent="1">
          <mxGeometry x="360" y="536" width="69.99" height="30" as="geometry" />
        </mxCell>
        <mxCell id="OUm_KwsajHJ4eiBkqCVf-23" value="" style="ellipse;whiteSpace=wrap;html=1;aspect=fixed;fillColor=none;strokeColor=#6c8ebf;" vertex="1" parent="1">
          <mxGeometry x="292" y="573" width="6" height="6" as="geometry" />
        </mxCell>
        <mxCell id="OUm_KwsajHJ4eiBkqCVf-24" value="" style="endArrow=none;html=1;rounded=0;exitX=1;exitY=0.5;exitDx=0;exitDy=0;fillColor=#dae8fc;strokeColor=#6c8ebf;" edge="1" parent="1">
          <mxGeometry width="50" height="50" relative="1" as="geometry">
            <mxPoint x="298" y="575.93" as="sourcePoint" />
            <mxPoint x="310" y="576" as="targetPoint" />
          </mxGeometry>
        </mxCell>
        <mxCell id="OUm_KwsajHJ4eiBkqCVf-26" value="SHA-1" style="rounded=1;whiteSpace=wrap;html=1;fontSize=6;fontStyle=1;aspect=fixed;fillColor=#b1ddf0;strokeColor=#10739e;" vertex="1" parent="1">
          <mxGeometry x="231" y="403" width="24" height="17" as="geometry" />
        </mxCell>
        <mxCell id="OUm_KwsajHJ4eiBkqCVf-27" value="SHA-1" style="rounded=1;whiteSpace=wrap;html=1;fontSize=6;fontStyle=1;aspect=fixed;fillColor=#b1ddf0;strokeColor=#10739e;" vertex="1" parent="1">
          <mxGeometry x="231" y="549" width="24" height="17" as="geometry" />
        </mxCell>
        <mxCell id="OUm_KwsajHJ4eiBkqCVf-28" value="SHA-2" style="rounded=1;whiteSpace=wrap;html=1;fontSize=6;fontStyle=1;aspect=fixed;fillColor=#b1ddf0;strokeColor=#10739e;" vertex="1" parent="1">
          <mxGeometry x="283" y="549" width="24" height="17" as="geometry" />
        </mxCell>
        <mxCell id="OUm_KwsajHJ4eiBkqCVf-29" value="" style="endArrow=classic;html=1;rounded=0;entryX=0;entryY=0.75;entryDx=0;entryDy=0;endSize=3;" edge="1" parent="1" target="OUm_KwsajHJ4eiBkqCVf-19">
          <mxGeometry width="50" height="50" relative="1" as="geometry">
            <mxPoint x="298" y="574" as="sourcePoint" />
            <mxPoint x="358" y="550" as="targetPoint" />
          </mxGeometry>
        </mxCell>
        <mxCell id="OUm_KwsajHJ4eiBkqCVf-31" value="Trunk" style="text;html=1;align=center;verticalAlign=middle;resizable=0;points=[];autosize=1;strokeColor=#b85450;fillColor=#f8cecc;rounded=1;fontStyle=1;shadow=0;" vertex="1" parent="1">
          <mxGeometry x="70" y="751" width="50" height="30" as="geometry" />
        </mxCell>
        <mxCell id="OUm_KwsajHJ4eiBkqCVf-32" value="" style="endArrow=none;html=1;rounded=1;curved=0;fillColor=#dae8fc;strokeColor=#6c8ebf;" edge="1" parent="1">
          <mxGeometry width="50" height="50" relative="1" as="geometry">
            <mxPoint x="170" y="767" as="sourcePoint" />
            <mxPoint x="240" y="717" as="targetPoint" />
            <Array as="points">
              <mxPoint x="200" y="717" />
            </Array>
          </mxGeometry>
        </mxCell>
        <mxCell id="OUm_KwsajHJ4eiBkqCVf-33" value="feat/number-1" style="text;html=1;align=center;verticalAlign=middle;resizable=0;points=[];autosize=1;strokeColor=#6c8ebf;fillColor=#dae8fc;rounded=1;fontStyle=1;fontSize=7;glass=0;shadow=0;strokeWidth=1;" vertex="1" parent="1">
          <mxGeometry x="120" y="707" width="70" height="20" as="geometry" />
        </mxCell>
        <mxCell id="OUm_KwsajHJ4eiBkqCVf-34" value="" style="endArrow=none;html=1;rounded=0;exitX=1;exitY=0.5;exitDx=0;exitDy=0;fillColor=#dae8fc;strokeColor=#6c8ebf;entryX=0;entryY=0.5;entryDx=0;entryDy=0;" edge="1" parent="1" source="OUm_KwsajHJ4eiBkqCVf-37" target="OUm_KwsajHJ4eiBkqCVf-38">
          <mxGeometry width="50" height="50" relative="1" as="geometry">
            <mxPoint x="280" y="757" as="sourcePoint" />
            <mxPoint x="270" y="717" as="targetPoint" />
          </mxGeometry>
        </mxCell>
        <mxCell id="OUm_KwsajHJ4eiBkqCVf-36" value="" style="endArrow=none;html=1;rounded=0;strokeWidth=3;dashed=1;fillColor=#f8cecc;strokeColor=#b85450;" edge="1" parent="1">
          <mxGeometry width="50" height="50" relative="1" as="geometry">
            <mxPoint x="388" y="766.97" as="sourcePoint" />
            <mxPoint x="438" y="767" as="targetPoint" />
          </mxGeometry>
        </mxCell>
        <mxCell id="OUm_KwsajHJ4eiBkqCVf-37" value="" style="ellipse;whiteSpace=wrap;html=1;aspect=fixed;fillColor=none;strokeColor=#6c8ebf;" vertex="1" parent="1">
          <mxGeometry x="240" y="714" width="6" height="6" as="geometry" />
        </mxCell>
        <mxCell id="OUm_KwsajHJ4eiBkqCVf-38" value="" style="ellipse;whiteSpace=wrap;html=1;aspect=fixed;fillColor=none;strokeColor=#6c8ebf;" vertex="1" parent="1">
          <mxGeometry x="292" y="714" width="6" height="6" as="geometry" />
        </mxCell>
        <mxCell id="OUm_KwsajHJ4eiBkqCVf-39" value="" style="endArrow=none;html=1;rounded=1;exitX=1;exitY=0.5;exitDx=0;exitDy=0;fillColor=#dae8fc;strokeColor=#6c8ebf;curved=0;entryX=0.5;entryY=0;entryDx=0;entryDy=0;" edge="1" parent="1" source="OUm_KwsajHJ4eiBkqCVf-38" target="OUm_KwsajHJ4eiBkqCVf-44">
          <mxGeometry width="50" height="50" relative="1" as="geometry">
            <mxPoint x="321.34" y="688.4699999999999" as="sourcePoint" />
            <mxPoint x="340" y="750" as="targetPoint" />
            <Array as="points">
              <mxPoint x="320" y="717" />
            </Array>
          </mxGeometry>
        </mxCell>
        <mxCell id="OUm_KwsajHJ4eiBkqCVf-40" value="SHA-1" style="rounded=1;whiteSpace=wrap;html=1;fontSize=6;fontStyle=1;aspect=fixed;fillColor=#b1ddf0;strokeColor=#10739e;" vertex="1" parent="1">
          <mxGeometry x="231" y="690" width="24" height="17" as="geometry" />
        </mxCell>
        <mxCell id="OUm_KwsajHJ4eiBkqCVf-41" value="SHA-2" style="rounded=1;whiteSpace=wrap;html=1;fontSize=6;fontStyle=1;aspect=fixed;fillColor=#b1ddf0;strokeColor=#10739e;" vertex="1" parent="1">
          <mxGeometry x="283" y="690" width="24" height="17" as="geometry" />
        </mxCell>
        <mxCell id="OUm_KwsajHJ4eiBkqCVf-30" value="" style="endArrow=none;html=1;rounded=0;strokeWidth=3;fillColor=#f8cecc;strokeColor=#b85450;entryX=0.002;entryY=0.445;entryDx=0;entryDy=0;entryPerimeter=0;" edge="1" parent="1" target="OUm_KwsajHJ4eiBkqCVf-44">
          <mxGeometry width="50" height="50" relative="1" as="geometry">
            <mxPoint x="130" y="767" as="sourcePoint" />
            <mxPoint x="320" y="767" as="targetPoint" />
          </mxGeometry>
        </mxCell>
        <mxCell id="OUm_KwsajHJ4eiBkqCVf-8" value="" style="endArrow=none;html=1;rounded=0;strokeWidth=3;fillColor=#f8cecc;strokeColor=#b85450;" edge="1" parent="1">
          <mxGeometry width="50" height="50" relative="1" as="geometry">
            <mxPoint x="130" y="626" as="sourcePoint" />
            <mxPoint x="330" y="626" as="targetPoint" />
          </mxGeometry>
        </mxCell>
        <mxCell id="KptZjxkiM9GZ7vo7AfT4-1" value="" style="endArrow=none;html=1;rounded=0;strokeWidth=3;fillColor=#f8cecc;strokeColor=#b85450;" edge="1" parent="1">
          <mxGeometry width="50" height="50" relative="1" as="geometry">
            <mxPoint x="130" y="480" as="sourcePoint" />
            <mxPoint x="290" y="480" as="targetPoint" />
          </mxGeometry>
        </mxCell>
        <mxCell id="OUm_KwsajHJ4eiBkqCVf-46" value="SHA-3" style="rounded=1;whiteSpace=wrap;html=1;fontSize=6;fontStyle=1;aspect=fixed;fillColor=#fad9d5;strokeColor=#ae4132;" vertex="1" parent="1">
          <mxGeometry x="334" y="781" width="24" height="17" as="geometry" />
        </mxCell>
        <mxCell id="OUm_KwsajHJ4eiBkqCVf-47" value="" style="endArrow=none;html=1;rounded=0;strokeWidth=3;fillColor=#f8cecc;strokeColor=#b85450;exitX=1;exitY=0.5;exitDx=0;exitDy=0;" edge="1" parent="1" source="OUm_KwsajHJ4eiBkqCVf-44">
          <mxGeometry width="50" height="50" relative="1" as="geometry">
            <mxPoint x="369.84" y="764.01" as="sourcePoint" />
            <mxPoint x="390" y="767" as="targetPoint" />
          </mxGeometry>
        </mxCell>
        <mxCell id="OUm_KwsajHJ4eiBkqCVf-48" value="create &lt;br style=&quot;font-size: 6px;&quot;&gt;artefact" style="text;html=1;align=center;verticalAlign=middle;resizable=0;points=[];autosize=1;strokeColor=none;fillColor=none;fontSize=6;fontStyle=1" vertex="1" parent="1">
          <mxGeometry x="258" y="388" width="40" height="30" as="geometry" />
        </mxCell>
        <mxCell id="OUm_KwsajHJ4eiBkqCVf-49" value="create &lt;br style=&quot;font-size: 6px;&quot;&gt;artefact" style="text;html=1;align=center;verticalAlign=middle;resizable=0;points=[];autosize=1;strokeColor=none;fillColor=none;fontSize=6;fontStyle=1" vertex="1" parent="1">
          <mxGeometry x="311.67" y="536" width="40" height="30" as="geometry" />
        </mxCell>
        <mxCell id="OUm_KwsajHJ4eiBkqCVf-50" value="" style="editableCssRules=.*;html=1;shape=image;verticalLabelPosition=bottom;labelBackgroundColor=#ffffff;verticalAlign=top;aspect=fixed;imageAspect=0;image=data:image/svg+xml,PHN2ZyB4bWxucz0iaHR0cDovL3d3dy53My5vcmcvMjAwMC9zdmciIHhtbG5zOnY9Imh0dHBzOi8vdmVjdGEuaW8vbmFubyIgd2lkdGg9IjIxLjk5OTAwMDU0OTMxNjQwNiIgaGVpZ2h0PSIyMC4zOTM5OTkwOTk3MzE0NDUiIHZpZXdCb3g9IjAgMCAyMS45OTkwMDA1NDkzMTY0MDYgMjAuMzkzOTk5MDk5NzMxNDQ1Ij4mI3hhOwk8c3R5bGUgdHlwZT0idGV4dC9jc3MiPiYjeGE7CS5zdDB7ZmlsbDojNDI4NWY0O2ZpbGwtcnVsZTpldmVub2RkfSYjeGE7CTwvc3R5bGU+JiN4YTsJPHBhdGggY2xhc3M9InN0MCIgZD0iTTUgMHYyLjQ1OEwxLjk5OSA0LjE5N3YxMi4wMUw1IDE3LjkzOHYyLjQ1NmwtNS0yLjg4N1YyLjg4NnptMTIgMGw0Ljk5OSAyLjg4NnYxNC42MjFMMTcgMjAuMzk0di0yLjQ1NmwzLTEuNzMxVjQuMTk3bC0zLTEuNzM5em0tNi4wMTYgNi42NzNsMi45NDctMS42NDYtMi45NDctMS42NDYtMi45NDcgMS42NDZ6bTMuMjY4LTEuMDk2bC0yLjg3MSAxLjY3OHYzLjI4N2wyLjg3MS0xLjY3NnpNNy43NzMgOC44NjZsMi44NzEgMS42NzRWNy4yNTZMNy43NzMgNS41Nzd6bS0uMjEyIDMuODc4bDIuODItMS42NDYtMi44Mi0xLjY0Ni0yLjgyIDEuNjQ2em0zLjEzMi0xLjA5OGwtMi44NzEgMS42Nzh2My4yODdsMi44NzEtMS42NzZ6bS02LjI2NCAzLjI4OUw3LjMgMTYuNjA5di0zLjI4NWwtMi44NzEtMS42Nzl6bTEwLjAyOS0yLjE5MWwyLjgyLTEuNjQ2LTIuODItMS42NDYtMi44MiAxLjY0NnptMy4xMzItMS4wOThsLTIuODcxIDEuNjc4djMuMjg3bDIuODcxLTEuNjc2em0tNi4yNjQgMy4yODlsMi44NzEgMS42NzR2LTMuMjg1bC0yLjg3MS0xLjY3OXoiLz4mI3hhOzwvc3ZnPg==;" vertex="1" parent="1">
          <mxGeometry x="448.32" y="690" width="33.33" height="30" as="geometry" />
        </mxCell>
        <mxCell id="OUm_KwsajHJ4eiBkqCVf-51" value="image:&lt;b&gt;sha-2&lt;/b&gt;&lt;br style=&quot;font-size: 8px;&quot;&gt;image:&lt;b&gt;pr-1&lt;/b&gt;&lt;br&gt;image&lt;b&gt;:sha-3&lt;/b&gt;" style="rounded=1;whiteSpace=wrap;html=1;fillColor=none;fontSize=8;" vertex="1" parent="1">
          <mxGeometry x="429.99" y="722" width="69.99" height="38" as="geometry" />
        </mxCell>
        <mxCell id="OUm_KwsajHJ4eiBkqCVf-52" value="" style="endArrow=classic;html=1;rounded=0;entryX=0;entryY=0.75;entryDx=0;entryDy=0;endSize=3;exitX=1;exitY=0;exitDx=0;exitDy=0;" edge="1" parent="1" source="OUm_KwsajHJ4eiBkqCVf-44" target="OUm_KwsajHJ4eiBkqCVf-51">
          <mxGeometry width="50" height="50" relative="1" as="geometry">
            <mxPoint x="346.33" y="763.67" as="sourcePoint" />
            <mxPoint x="408.33" y="748.67" as="targetPoint" />
          </mxGeometry>
        </mxCell>
        <mxCell id="OUm_KwsajHJ4eiBkqCVf-44" value="" style="ellipse;whiteSpace=wrap;html=1;fillColor=none;strokeColor=#B85450;strokeWidth=2;aspect=fixed;" vertex="1" parent="1">
          <mxGeometry x="341.84" y="763.67" width="6.33" height="6.33" as="geometry" />
        </mxCell>
        <mxCell id="OUm_KwsajHJ4eiBkqCVf-53" value="promote&lt;br style=&quot;font-size: 6px;&quot;&gt;artefact&lt;br&gt;(retag)" style="text;html=1;align=center;verticalAlign=middle;resizable=0;points=[];autosize=1;strokeColor=none;fillColor=none;fontSize=6;fontStyle=1" vertex="1" parent="1">
          <mxGeometry x="355" y="722" width="50" height="40" as="geometry" />
        </mxCell>
      </root>
    </mxGraphModel>
  </diagram>
</mxfile>
